<?xml version="1.0" encoding="UTF-8"?>
<svg xmlns="http://www.w3.org/2000/svg" xmlns:xlink="http://www.w3.org/1999/xlink" width="2100" height="600" viewBox="0 0 2100 600">
<defs>
<g>
<g id="glyph-0-0">
<path d="M 9.5 0 L 9.5 -10.5 L 12.75 -10.5 C 18.414062 -10.5 23.25 -11.539062 27.25 -13.625 C 31.25 -15.707031 33.25 -20.664062 33.25 -28.5 L 33.25 -151 C 33.25 -158.332031 31.207031 -163 27.125 -165 C 23.039062 -167 18.25 -168 12.75 -168 L 9.5 -168 L 9.5 -178.5 L 79.75 -178.5 C 100.75 -178.5 116.25 -173.875 126.25 -164.625 C 136.25 -155.375 141.25 -142.582031 141.25 -126.25 C 141.25 -116.414062 139.125 -107.164062 134.875 -98.5 C 130.625 -89.832031 123.582031 -82.832031 113.75 -77.5 C 103.914062 -72.164062 90.75 -69.5 74.25 -69.5 L 58.5 -69.5 L 58.5 -27.25 C 58.5 -19.914062 60.539062 -15.289062 64.625 -13.375 C 68.707031 -11.457031 73.5 -10.5 79 -10.5 L 87.25 -10.5 L 87.25 0 Z M 71.75 -81.25 C 86.914062 -81.25 97.789062 -84.625 104.375 -91.375 C 110.957031 -98.125 114.25 -109.414062 114.25 -125.25 C 114.25 -139.25 111.332031 -149.625 105.5 -156.375 C 99.664062 -163.125 89.664062 -166.5 75.5 -166.5 L 58.5 -166.5 L 58.5 -81.25 Z M 71.75 -81.25 "/>
</g>
<g id="glyph-0-1">
<path d="M 4.5 0 L 4.5 -10.5 L 6.5 -10.5 C 12.164062 -10.5 17 -11.539062 21 -13.625 C 25 -15.707031 27 -20.664062 27 -28.5 L 27 -162.5 C 27 -169.832031 24.957031 -174.5 20.875 -176.5 C 16.789062 -178.5 12 -179.5 6.5 -179.5 L 4.5 -179.5 L 4.5 -190 L 50.5 -190 L 50.5 -135 C 50.5 -132 50.414062 -128.875 50.25 -125.625 C 50.082031 -122.375 49.914062 -119.582031 49.75 -117.25 C 49.582031 -114.914062 49.5 -113.75 49.5 -113.75 L 50.75 -113.75 C 58.414062 -128.914062 70.664062 -136.5 87.5 -136.5 C 101.832031 -136.5 112.789062 -132.625 120.375 -124.875 C 127.957031 -117.125 131.75 -104.664062 131.75 -87.5 L 131.75 -28.5 C 131.75 -20.664062 133.539062 -15.707031 137.125 -13.625 C 140.707031 -11.539062 145.332031 -10.5 151 -10.5 L 151.75 -10.5 L 151.75 0 L 108.25 0 L 108.25 -86.25 C 108.25 -97.082031 106.207031 -105.5 102.125 -111.5 C 98.039062 -117.5 90.914062 -120.5 80.75 -120.5 C 70.414062 -120.5 62.789062 -116.832031 57.875 -109.5 C 52.957031 -102.164062 50.5 -92.332031 50.5 -80 L 50.5 -27.25 C 50.5 -19.914062 52.539062 -15.289062 56.625 -13.375 C 60.707031 -11.457031 65.5 -10.5 71 -10.5 L 71.75 -10.5 L 71.75 0 Z M 4.5 0 "/>
</g>
<g id="glyph-0-2">
<path d="M 68.25 2.5 C 55.082031 2.5 44.914062 -1.375 37.75 -9.125 C 30.582031 -16.875 27 -29.332031 27 -46.5 L 27 -106.5 C 27 -113.832031 24.957031 -118.5 20.875 -120.5 C 16.789062 -122.5 12 -123.5 6.5 -123.5 L 5.75 -123.5 L 5.75 -134 L 50.5 -134 L 50.5 -47.75 C 50.5 -36.914062 52.332031 -28.5 56 -22.5 C 59.664062 -16.5 66.582031 -13.5 76.75 -13.5 C 87.75 -13.5 95.75 -17.207031 100.75 -24.625 C 105.75 -32.039062 108.25 -41.832031 108.25 -54 L 108.25 -105.5 C 108.25 -113.332031 106.25 -118.289062 102.25 -120.375 C 98.25 -122.457031 93.414062 -123.5 87.75 -123.5 L 87 -123.5 L 87 -134 L 131.75 -134 L 131.75 -27.25 C 131.75 -19.914062 133.789062 -15.289062 137.875 -13.375 C 141.957031 -11.457031 146.75 -10.5 152.25 -10.5 L 153 -10.5 L 153 0 L 113.25 0 L 110 -20.25 L 108.75 -20.25 C 103.582031 -10.914062 97.582031 -4.789062 90.75 -1.875 C 83.914062 1.039062 76.414062 2.5 68.25 2.5 Z M 68.25 2.5 "/>
</g>
<g id="glyph-0-3">
<path d="M 7 0 L 7 -10.5 L 9 -10.5 C 14.664062 -10.5 19.5 -11.539062 23.5 -13.625 C 27.5 -15.707031 29.5 -20.664062 29.5 -28.5 L 29.5 -106.5 C 29.5 -113.832031 27.539062 -118.5 23.625 -120.5 C 19.707031 -122.5 15 -123.5 9.5 -123.5 L 8.25 -123.5 L 8.25 -134 L 48.75 -134 L 52 -113.75 L 53.25 -113.75 C 58.414062 -123.082031 64.207031 -129.207031 70.625 -132.125 C 77.039062 -135.039062 84.25 -136.5 92.25 -136.5 C 105.414062 -136.5 115.707031 -132.625 123.125 -124.875 C 130.539062 -117.125 134.25 -104.664062 134.25 -87.5 L 134.25 -28.5 C 134.25 -20.664062 135.957031 -15.707031 139.375 -13.625 C 142.789062 -11.539062 147.332031 -10.5 153 -10.5 L 154.25 -10.5 L 154.25 0 L 110.75 0 L 110.75 -86.25 C 110.75 -97.082031 108.707031 -105.5 104.625 -111.5 C 100.539062 -117.5 93.414062 -120.5 83.25 -120.5 C 75.75 -120.5 69.789062 -118.625 65.375 -114.875 C 60.957031 -111.125 57.789062 -106.164062 55.875 -100 C 53.957031 -93.832031 53 -87.164062 53 -80 L 53 -27.25 C 53 -19.914062 54.957031 -15.289062 58.875 -13.375 C 62.789062 -11.457031 67.5 -10.5 73 -10.5 L 74.25 -10.5 L 74.25 0 Z M 7 0 "/>
</g>
<g id="glyph-0-4">
<path d="M 9.5 48.25 C 20.832031 48.25 30.125 46.082031 37.375 41.75 C 44.625 37.414062 50.5 31.539062 55 24.125 C 59.5 16.707031 63.082031 8.332031 65.75 -1 L 19.5 -110.25 C 17.332031 -115.414062 15.039062 -118.914062 12.625 -120.75 C 10.207031 -122.582031 6.582031 -123.5 1.75 -123.5 L 1 -123.5 L 1 -134 L 61 -134 L 61 -123.5 L 60.25 -123.5 C 50.25 -123.5 45.25 -119.5 45.25 -111.5 C 45.25 -108.664062 45.914062 -105.582031 47.25 -102.25 L 65.5 -57.75 C 67.164062 -53.914062 68.789062 -49.707031 70.375 -45.125 C 71.957031 -40.539062 73.414062 -36.164062 74.75 -32 C 76.082031 -27.832031 77 -24.332031 77.5 -21.5 C 78.664062 -26.332031 80.207031 -31.332031 82.125 -36.5 C 84.039062 -41.664062 85.832031 -46.75 87.5 -51.75 L 104.25 -100.5 C 105.75 -104.5 106.5 -108.082031 106.5 -111.25 C 106.5 -119.414062 101 -123.5 90 -123.5 L 89.25 -123.5 L 89.25 -134 L 141.25 -134 L 141.25 -123.5 L 140.5 -123.5 C 135.664062 -123.5 132 -122.25 129.5 -119.75 C 127 -117.25 124.332031 -112 121.5 -104 L 83.5 1 C 79.164062 13.164062 75 23.082031 71 30.75 C 67 38.414062 62.539062 44.375 57.625 48.625 C 52.707031 52.875 46.582031 55.832031 39.25 57.5 C 31.914062 59.164062 22.75 60 11.75 60 L 9.5 60 Z M 9.5 48.25 "/>
</g>
</g>
</defs>
<g fill="rgb(0%, 0%, 0%)" fill-opacity="1">
<use xlink:href="#glyph-0-0" x="117.75" y="395"/>
<use xlink:href="#glyph-0-1" x="268.75" y="395"/>
<use xlink:href="#glyph-0-2" x="427.5" y="395"/>
<use xlink:href="#glyph-0-3" x="586.25" y="395"/>
<use xlink:href="#glyph-0-3" x="747.5" y="395"/>
<use xlink:href="#glyph-0-4" x="908.75" y="395"/>
</g>
<path fill="none" stroke-width="5" stroke-linecap="butt" stroke-linejoin="miter" stroke="rgb(0%, 0%, 0%)" stroke-opacity="1" stroke-miterlimit="10" d="M 1469.664062 338.363281 L 1470 337.769531 L 1470.363281 337.191406 L 1470.75 336.625 L 1471.160156 336.070312 L 1471.59375 335.53125 L 1472.050781 335 L 1472.527344 334.484375 L 1473.023438 333.976562 L 1473.53125 333.476562 L 1474.050781 332.980469 L 1474.582031 332.492188 L 1475.117188 332.003906 L 1475.652344 331.519531 L 1476.183594 331.03125 L 1476.710938 330.539062 L 1477.226562 330.039062 L 1477.722656 329.535156 L 1478.203125 329.019531 L 1478.65625 328.488281 L 1479.085938 327.945312 L 1479.480469 327.382812 L 1479.84375 326.804688 L 1480.167969 326.203125 L 1480.453125 325.582031 L 1480.691406 324.9375 L 1480.890625 324.269531 L 1481.042969 323.578125 L 1481.152344 322.863281 L 1481.210938 322.121094 L 1481.230469 321.359375 L 1481.207031 320.570312 L 1481.140625 319.761719 L 1481.035156 318.933594 L 1480.898438 318.085938 L 1480.730469 317.222656 L 1480.539062 316.347656 L 1480.324219 315.457031 L 1480.097656 314.5625 L 1479.859375 313.660156 L 1479.621094 312.761719 L 1479.386719 311.859375 L 1479.164062 310.96875 L 1478.960938 310.085938 L 1478.78125 309.214844 L 1478.632812 308.363281 L 1478.523438 307.53125 L 1478.460938 306.722656 L 1478.445312 305.941406 L 1478.488281 305.191406 L 1478.59375 304.472656 L 1478.761719 303.789062 L 1479 303.144531 L 1479.308594 302.535156 L 1479.691406 301.96875 L 1480.148438 301.441406 L 1480.683594 300.953125 L 1481.289062 300.503906 L 1481.972656 300.097656 L 1482.722656 299.726562 L 1483.542969 299.394531 L 1484.429688 299.09375 L 1485.375 298.828125 L 1486.375 298.589844 L 1487.421875 298.378906 L 1488.511719 298.1875 L 1489.636719 298.019531 L 1490.789062 297.863281 L 1491.960938 297.71875 L 1493.148438 297.582031 L 1494.339844 297.445312 L 1495.523438 297.308594 L 1496.699219 297.164062 L 1497.855469 297.011719 L 1498.984375 296.84375 L 1500.082031 296.65625 L 1501.132812 296.449219 L 1502.140625 296.214844 L 1503.09375 295.953125 L 1503.988281 295.660156 L 1504.820312 295.332031 L 1505.585938 294.96875 L 1506.277344 294.566406 L 1506.894531 294.125 L 1507.4375 293.640625 L 1507.90625 293.117188 L 1508.292969 292.550781 L 1508.601562 291.945312 L 1508.835938 291.296875 L 1508.992188 290.605469 L 1509.074219 289.878906 L 1509.085938 289.109375 L 1509.027344 288.304688 L 1508.902344 287.464844 L 1508.71875 286.59375 L 1508.476562 285.6875 L 1508.179688 284.757812 L 1507.835938 283.796875 L 1507.449219 282.816406 L 1507.023438 281.816406 L 1506.566406 280.796875 L 1506.078125 279.761719 L 1505.570312 278.714844 L 1505.046875 277.660156 L 1504.511719 276.601562 L 1503.96875 275.535156 L 1503.421875 274.46875 L 1502.882812 273.40625 L 1502.351562 272.347656 L 1501.828125 271.296875 L 1501.324219 270.25 L 1500.84375 269.21875 L 1500.386719 268.199219 L 1499.953125 267.195312 L 1499.554688 266.207031 L 1499.1875 265.238281 L 1498.859375 264.289062 L 1498.570312 263.359375 L 1498.320312 262.449219 L 1498.113281 261.566406 L 1497.949219 260.703125 L 1497.828125 259.867188 L 1497.753906 259.054688 L 1497.730469 258.265625 L 1497.75 257.503906 L 1497.816406 256.765625 L 1497.933594 256.054688 L 1498.09375 255.367188 L 1498.300781 254.707031 L 1498.554688 254.070312 L 1498.855469 253.457031 L 1499.199219 252.867188 L 1499.585938 252.300781 L 1500.019531 251.757812 L 1500.488281 251.238281 L 1501 250.738281 L 1501.550781 250.261719 L 1502.140625 249.800781 L 1502.761719 249.363281 L 1503.421875 248.941406 L 1504.109375 248.539062 L 1504.832031 248.152344 L 1505.582031 247.78125 L 1506.359375 247.421875 L 1507.164062 247.082031 L 1507.988281 246.75 L 1508.839844 246.433594 L 1509.707031 246.125 L 1510.597656 245.828125 L 1511.503906 245.539062 L 1512.421875 245.261719 L 1513.355469 244.988281 L 1514.300781 244.71875 L 1515.253906 244.457031 L 1516.214844 244.199219 L 1517.179688 243.945312 L 1519.125 243.4375 L 1520.097656 243.1875 L 1521.066406 242.933594 L 1522.03125 242.679688 L 1522.992188 242.417969 L 1523.945312 242.15625 L 1524.886719 241.886719 L 1525.816406 241.613281 L 1526.734375 241.332031 L 1527.636719 241.042969 L 1528.519531 240.742188 L 1529.382812 240.433594 L 1530.226562 240.109375 L 1531.042969 239.777344 L 1531.835938 239.425781 L 1532.601562 239.0625 L 1533.339844 238.683594 L 1534.042969 238.289062 L 1534.714844 237.875 L 1535.351562 237.445312 L 1535.949219 236.992188 L 1536.511719 236.519531 L 1537.035156 236.023438 L 1537.515625 235.507812 L 1537.953125 234.96875 L 1538.34375 234.40625 L 1538.695312 233.820312 L 1538.996094 233.210938 L 1539.253906 232.574219 L 1539.464844 231.914062 L 1539.628906 231.226562 L 1539.742188 230.515625 L 1539.8125 229.78125 L 1539.835938 229.019531 L 1539.816406 228.234375 L 1539.75 227.425781 L 1539.644531 226.59375 L 1539.496094 225.742188 L 1539.308594 224.871094 L 1539.089844 223.976562 L 1538.835938 223.066406 L 1538.554688 222.140625 L 1538.246094 221.203125 L 1537.917969 220.253906 L 1537.570312 219.296875 L 1537.210938 218.328125 L 1536.847656 217.359375 L 1536.480469 216.390625 L 1536.117188 215.421875 L 1535.761719 214.457031 L 1535.425781 213.503906 L 1535.105469 212.558594 L 1534.816406 211.628906 L 1534.554688 210.71875 L 1534.335938 209.824219 L 1534.15625 208.957031 L 1534.023438 208.113281 L 1533.945312 207.296875 L 1533.925781 206.511719 L 1533.964844 205.757812 L 1534.066406 205.039062 L 1534.230469 204.355469 L 1534.464844 203.707031 L 1534.761719 203.09375 L 1535.128906 202.515625 L 1535.5625 201.972656 L 1536.054688 201.464844 L 1536.609375 200.988281 L 1537.21875 200.542969 L 1537.882812 200.125 L 1538.589844 199.730469 L 1539.332031 199.355469 L 1540.109375 199 L 1540.910156 198.65625 L 1541.730469 198.320312 L 1543.378906 197.65625 L 1544.191406 197.320312 L 1544.988281 196.972656 L 1545.757812 196.613281 L 1546.496094 196.234375 L 1547.199219 195.835938 L 1547.851562 195.414062 L 1548.457031 194.964844 L 1549.011719 194.488281 L 1549.507812 193.980469 L 1549.949219 193.445312 L 1550.335938 192.878906 L 1550.671875 192.285156 L 1550.957031 191.664062 L 1551.195312 191.019531 L 1551.394531 190.351562 L 1551.558594 189.667969 L 1551.699219 188.96875 L 1551.820312 188.257812 L 1551.933594 187.546875 L 1552.046875 186.832031 L 1552.164062 186.125 L 1552.300781 185.421875 L 1552.457031 184.734375 L 1552.644531 184.058594 L 1552.867188 183.40625 L 1553.125 182.769531 L 1553.425781 182.160156 "/>
<path fill="none" stroke-width="5" stroke-linecap="butt" stroke-linejoin="miter" stroke="rgb(0%, 0%, 0%)" stroke-opacity="1" stroke-miterlimit="10" d="M 1588.019531 181.410156 L 1588.371094 182.035156 L 1588.699219 182.667969 L 1589 183.320312 L 1589.277344 183.988281 L 1589.53125 184.664062 L 1589.761719 185.359375 L 1589.976562 186.0625 L 1590.171875 186.773438 L 1590.355469 187.496094 L 1590.523438 188.226562 L 1590.6875 188.960938 L 1590.84375 189.695312 L 1591.15625 191.171875 L 1591.324219 191.902344 L 1591.5 192.628906 L 1591.691406 193.34375 L 1591.902344 194.046875 L 1592.136719 194.738281 L 1592.398438 195.414062 L 1592.691406 196.070312 L 1593.015625 196.707031 L 1593.378906 197.324219 L 1593.78125 197.914062 L 1594.222656 198.480469 L 1594.707031 199.023438 L 1595.238281 199.539062 L 1595.8125 200.03125 L 1596.429688 200.492188 L 1597.089844 200.929688 L 1597.792969 201.34375 L 1598.535156 201.734375 L 1599.316406 202.101562 L 1600.128906 202.449219 L 1600.972656 202.777344 L 1601.839844 203.09375 L 1602.726562 203.398438 L 1603.625 203.695312 L 1604.535156 203.984375 L 1605.449219 204.273438 L 1606.355469 204.566406 L 1607.25 204.863281 L 1608.128906 205.171875 L 1608.984375 205.496094 L 1609.804688 205.839844 L 1610.589844 206.203125 L 1611.332031 206.59375 L 1612.023438 207.011719 L 1612.660156 207.464844 L 1613.238281 207.953125 L 1613.75 208.476562 L 1614.199219 209.042969 L 1614.574219 209.648438 L 1614.878906 210.296875 L 1615.113281 210.992188 L 1615.269531 211.726562 L 1615.355469 212.507812 L 1615.367188 213.328125 L 1615.3125 214.191406 L 1615.191406 215.09375 L 1615.003906 216.035156 L 1614.761719 217.007812 L 1614.464844 218.015625 L 1614.121094 219.046875 L 1613.738281 220.105469 L 1613.316406 221.183594 L 1612.871094 222.28125 L 1612.40625 223.386719 L 1611.925781 224.5 L 1611.441406 225.617188 L 1610.964844 226.730469 L 1610.496094 227.839844 L 1610.046875 228.9375 L 1609.621094 230.015625 L 1609.230469 231.078125 L 1608.882812 232.117188 L 1608.578125 233.125 L 1608.324219 234.105469 L 1608.132812 235.050781 L 1608 235.960938 L 1607.933594 236.828125 L 1607.933594 237.65625 L 1608.007812 238.445312 L 1608.15625 239.1875 L 1608.382812 239.882812 L 1608.683594 240.535156 L 1609.058594 241.140625 L 1609.507812 241.703125 L 1610.035156 242.222656 L 1610.632812 242.695312 L 1611.300781 243.132812 L 1612.035156 243.523438 L 1612.835938 243.878906 L 1613.695312 244.199219 L 1614.609375 244.488281 L 1615.578125 244.742188 L 1616.59375 244.972656 L 1617.648438 245.175781 L 1618.742188 245.355469 L 1619.867188 245.519531 L 1621.019531 245.664062 L 1622.195312 245.796875 L 1623.386719 245.921875 L 1624.589844 246.039062 L 1625.796875 246.152344 L 1627.007812 246.265625 L 1628.210938 246.378906 L 1629.410156 246.5 L 1630.597656 246.625 L 1631.765625 246.761719 L 1632.917969 246.910156 L 1634.042969 247.070312 L 1635.140625 247.25 L 1636.210938 247.445312 L 1637.246094 247.660156 L 1638.246094 247.898438 L 1639.207031 248.15625 L 1640.128906 248.441406 L 1641.011719 248.746094 L 1641.851562 249.078125 L 1642.644531 249.4375 L 1643.394531 249.824219 L 1644.097656 250.234375 L 1644.757812 250.675781 L 1645.371094 251.140625 L 1645.9375 251.632812 L 1646.457031 252.15625 L 1646.933594 252.703125 L 1647.363281 253.277344 L 1647.75 253.878906 L 1648.09375 254.507812 L 1648.394531 255.15625 L 1648.652344 255.835938 L 1648.871094 256.535156 L 1649.046875 257.257812 L 1649.191406 258.003906 L 1649.296875 258.773438 L 1649.367188 259.5625 L 1649.402344 260.367188 L 1649.40625 261.195312 L 1649.382812 262.039062 L 1649.328125 262.902344 L 1649.25 263.78125 L 1649.144531 264.671875 L 1649.015625 265.578125 L 1648.863281 266.5 L 1648.695312 267.429688 L 1648.503906 268.371094 L 1648.300781 269.324219 L 1648.082031 270.28125 L 1647.851562 271.25 L 1647.605469 272.222656 L 1647.355469 273.203125 L 1647.09375 274.1875 L 1646.832031 275.175781 L 1646.292969 277.152344 L 1646.023438 278.144531 L 1645.753906 279.132812 L 1645.488281 280.121094 L 1645.230469 281.101562 L 1644.980469 282.082031 L 1644.738281 283.054688 L 1644.507812 284.019531 L 1644.292969 284.980469 L 1644.09375 285.929688 L 1643.90625 286.867188 L 1643.742188 287.796875 L 1643.601562 288.710938 L 1643.480469 289.613281 L 1643.382812 290.5 L 1643.316406 291.367188 L 1643.277344 292.222656 L 1643.265625 293.058594 L 1643.289062 293.875 L 1643.347656 294.667969 L 1643.441406 295.445312 L 1643.574219 296.195312 L 1643.742188 296.925781 L 1643.953125 297.632812 L 1644.203125 298.3125 L 1644.5 298.96875 L 1644.835938 299.597656 L 1645.21875 300.199219 L 1645.648438 300.777344 L 1646.121094 301.324219 L 1646.640625 301.847656 L 1647.203125 302.34375 L 1647.816406 302.808594 L 1648.46875 303.25 L 1649.171875 303.667969 L 1649.914062 304.054688 L 1650.695312 304.421875 L 1651.519531 304.761719 L 1652.378906 305.082031 L 1653.273438 305.382812 L 1654.199219 305.664062 L 1655.152344 305.925781 L 1656.132812 306.175781 L 1657.132812 306.414062 L 1658.148438 306.640625 L 1659.175781 306.859375 L 1660.210938 307.078125 L 1662.28125 307.507812 L 1663.304688 307.730469 L 1664.3125 307.964844 L 1665.300781 308.207031 L 1666.265625 308.464844 L 1667.195312 308.742188 L 1668.089844 309.042969 L 1668.945312 309.367188 L 1669.75 309.71875 L 1670.503906 310.101562 L 1671.207031 310.515625 L 1671.847656 310.964844 L 1672.425781 311.449219 L 1672.941406 311.972656 L 1673.394531 312.535156 L 1673.78125 313.136719 L 1674.101562 313.777344 L 1674.359375 314.453125 L 1674.554688 315.167969 L 1674.691406 315.917969 L 1674.777344 316.695312 L 1674.808594 317.507812 L 1674.796875 318.34375 L 1674.75 319.203125 L 1674.667969 320.082031 L 1674.566406 320.972656 L 1674.445312 321.871094 L 1674.320312 322.777344 L 1674.195312 323.679688 L 1674.078125 324.578125 L 1673.980469 325.46875 L 1673.90625 326.34375 L 1673.863281 327.199219 L 1673.859375 328.03125 L 1673.898438 328.835938 L 1673.988281 329.613281 L 1674.128906 330.363281 L 1674.320312 331.078125 L 1674.566406 331.761719 L 1674.867188 332.414062 L 1675.21875 333.03125 L 1675.621094 333.625 L 1676.066406 334.191406 L 1676.550781 334.734375 L 1677.070312 335.257812 L 1677.609375 335.765625 L 1678.171875 336.261719 L 1678.738281 336.757812 L 1679.308594 337.25 L 1679.871094 337.746094 L 1680.417969 338.25 L 1680.941406 338.769531 L 1681.4375 339.304688 L 1681.902344 339.859375 L 1682.324219 340.4375 L 1682.710938 341.039062 "/>
<path fill="none" stroke-width="5" stroke-linecap="butt" stroke-linejoin="miter" stroke="rgb(0%, 0%, 0%)" stroke-opacity="1" stroke-miterlimit="10" d="M 1665.46875 371.039062 L 1664.789062 371.019531 L 1664.105469 370.972656 L 1663.425781 370.890625 L 1662.746094 370.785156 L 1662.0625 370.652344 L 1661.382812 370.496094 L 1660.703125 370.3125 L 1660.023438 370.113281 L 1659.34375 369.894531 L 1658.664062 369.664062 L 1657.984375 369.425781 L 1657.304688 369.179688 L 1656.625 368.929688 L 1655.945312 368.6875 L 1655.265625 368.449219 L 1654.582031 368.226562 L 1653.902344 368.019531 L 1653.222656 367.835938 L 1652.542969 367.679688 L 1651.863281 367.554688 L 1651.179688 367.464844 L 1650.5 367.417969 L 1649.816406 367.410156 L 1649.136719 367.445312 L 1648.453125 367.535156 L 1647.769531 367.667969 L 1647.085938 367.855469 L 1646.402344 368.09375 L 1645.71875 368.386719 L 1645.035156 368.726562 L 1644.351562 369.113281 L 1643.664062 369.546875 L 1642.980469 370.027344 L 1642.292969 370.542969 L 1641.609375 371.09375 L 1640.921875 371.671875 L 1640.234375 372.273438 L 1639.550781 372.894531 L 1638.175781 374.152344 L 1637.488281 374.777344 L 1636.804688 375.390625 L 1636.117188 375.984375 L 1635.429688 376.546875 L 1634.746094 377.074219 L 1634.058594 377.558594 L 1633.375 377.992188 L 1632.6875 378.367188 L 1632.003906 378.679688 L 1631.320312 378.921875 L 1630.636719 379.089844 L 1629.957031 379.183594 L 1629.273438 379.191406 L 1628.59375 379.117188 L 1627.914062 378.957031 L 1627.234375 378.710938 L 1626.554688 378.382812 L 1625.875 377.96875 L 1625.195312 377.476562 L 1624.519531 376.90625 L 1623.84375 376.261719 L 1623.167969 375.550781 L 1622.492188 374.777344 L 1621.816406 373.949219 L 1621.140625 373.070312 L 1620.464844 372.15625 L 1619.792969 371.207031 L 1619.117188 370.238281 L 1618.445312 369.25 L 1617.769531 368.261719 L 1617.097656 367.273438 L 1616.421875 366.300781 L 1615.746094 365.351562 L 1615.074219 364.429688 L 1614.398438 363.546875 L 1613.722656 362.710938 L 1613.046875 361.929688 L 1612.371094 361.207031 L 1611.695312 360.550781 L 1611.015625 359.96875 L 1610.339844 359.464844 L 1609.660156 359.039062 L 1608.980469 358.695312 L 1608.300781 358.4375 L 1607.621094 358.269531 L 1606.941406 358.191406 L 1606.257812 358.199219 L 1605.578125 358.296875 L 1604.894531 358.476562 L 1604.210938 358.746094 L 1603.523438 359.09375 L 1602.839844 359.519531 L 1602.15625 360.019531 L 1601.46875 360.589844 L 1600.78125 361.226562 L 1600.09375 361.921875 L 1599.40625 362.671875 L 1598.71875 363.472656 L 1598.03125 364.3125 L 1597.34375 365.195312 L 1596.652344 366.105469 L 1595.964844 367.042969 L 1595.273438 368 L 1594.585938 368.96875 L 1593.894531 369.941406 L 1593.207031 370.921875 L 1592.515625 371.894531 L 1591.828125 372.859375 L 1591.140625 373.808594 L 1590.449219 374.742188 L 1589.761719 375.648438 L 1589.074219 376.53125 L 1588.382812 377.378906 L 1587.695312 378.191406 L 1587.007812 378.96875 L 1586.320312 379.699219 L 1585.632812 380.390625 L 1584.949219 381.035156 L 1584.261719 381.628906 L 1583.574219 382.175781 L 1582.890625 382.671875 L 1582.203125 383.117188 L 1581.519531 383.507812 L 1580.835938 383.84375 L 1580.152344 384.125 L 1579.46875 384.355469 L 1578.785156 384.535156 L 1578.101562 384.65625 L 1577.417969 384.730469 L 1576.738281 384.75 L 1576.054688 384.71875 L 1575.375 384.640625 L 1574.695312 384.511719 L 1574.015625 384.335938 L 1573.332031 384.117188 L 1572.652344 383.851562 L 1571.976562 383.542969 L 1571.296875 383.199219 L 1570.617188 382.8125 L 1569.9375 382.390625 L 1569.261719 381.929688 L 1568.582031 381.441406 L 1567.90625 380.917969 L 1567.226562 380.367188 L 1566.550781 379.789062 L 1565.875 379.183594 L 1565.195312 378.558594 L 1564.519531 377.910156 L 1563.84375 377.242188 L 1563.167969 376.558594 L 1562.492188 375.863281 L 1561.8125 375.148438 L 1561.136719 374.429688 L 1560.460938 373.699219 L 1559.109375 372.222656 L 1558.433594 371.476562 L 1557.757812 370.734375 L 1556.40625 369.257812 L 1555.730469 368.53125 L 1555.054688 367.808594 L 1554.378906 367.101562 L 1553.703125 366.402344 L 1553.023438 365.722656 L 1552.347656 365.0625 L 1551.671875 364.417969 L 1550.996094 363.800781 L 1550.316406 363.203125 L 1549.640625 362.636719 L 1548.964844 362.09375 L 1548.285156 361.585938 L 1547.605469 361.113281 L 1546.929688 360.671875 L 1546.25 360.269531 L 1545.570312 359.910156 L 1544.890625 359.589844 L 1544.210938 359.3125 L 1543.53125 359.082031 L 1542.851562 358.894531 L 1542.171875 358.761719 L 1541.492188 358.671875 L 1540.808594 358.636719 L 1540.128906 358.652344 L 1539.445312 358.722656 L 1538.761719 358.84375 L 1538.078125 359.019531 L 1537.394531 359.246094 L 1536.710938 359.527344 L 1536.027344 359.863281 L 1535.34375 360.246094 L 1534.65625 360.679688 L 1533.972656 361.164062 L 1533.285156 361.691406 L 1532.601562 362.261719 L 1531.914062 362.875 L 1531.226562 363.519531 L 1530.539062 364.203125 L 1529.851562 364.910156 L 1529.164062 365.644531 L 1528.476562 366.398438 L 1527.789062 367.164062 L 1527.101562 367.9375 L 1526.414062 368.714844 L 1525.726562 369.488281 L 1525.039062 370.25 L 1524.351562 370.992188 L 1523.664062 371.714844 L 1522.976562 372.40625 L 1522.289062 373.058594 L 1521.605469 373.671875 L 1520.917969 374.234375 L 1520.230469 374.742188 L 1519.546875 375.191406 L 1518.863281 375.578125 L 1518.175781 375.894531 L 1517.492188 376.140625 L 1516.8125 376.308594 L 1516.128906 376.40625 L 1515.445312 376.425781 L 1514.765625 376.371094 L 1514.085938 376.242188 L 1513.40625 376.042969 L 1512.726562 375.773438 L 1512.046875 375.441406 L 1511.367188 375.050781 L 1510.6875 374.609375 L 1510.011719 374.121094 L 1509.332031 373.601562 L 1508.65625 373.050781 L 1507.976562 372.484375 L 1506.625 371.335938 L 1505.945312 370.773438 L 1505.269531 370.226562 L 1504.589844 369.714844 L 1503.914062 369.234375 L 1503.234375 368.800781 L 1502.554688 368.421875 L 1501.875 368.09375 L 1501.195312 367.828125 L 1500.515625 367.621094 L 1499.835938 367.480469 L 1499.15625 367.402344 L 1498.472656 367.382812 L 1497.792969 367.421875 L 1497.109375 367.511719 L 1496.425781 367.644531 L 1495.742188 367.816406 L 1495.058594 368.019531 L 1494.375 368.238281 L 1493.007812 368.707031 L 1492.324219 368.929688 L 1491.644531 369.136719 L 1490.960938 369.320312 L 1490.277344 369.464844 L 1489.59375 369.574219 L 1488.910156 369.640625 L 1488.230469 369.660156 "/>
<path fill="none" stroke-width="3" stroke-linecap="butt" stroke-linejoin="miter" stroke="rgb(0%, 0%, 0%)" stroke-opacity="1" stroke-miterlimit="10" d="M 1422.757812 387.34375 L 1404.34375 398.265625 "/>
<path fill-rule="nonzero" fill="rgb(0%, 0%, 0%)" fill-opacity="1" d="M 1405.90625 400.898438 L 1397.988281 402.035156 L 1402.78125 395.632812 "/>
<path fill="none" stroke-width="3" stroke-linecap="butt" stroke-linejoin="miter" stroke="rgb(0%, 0%, 0%)" stroke-opacity="1" stroke-miterlimit="10" d="M 1435.074219 339.109375 L 1426.597656 324.824219 "/>
<path fill-rule="nonzero" fill="rgb(0%, 0%, 0%)" fill-opacity="1" d="M 1423.964844 326.386719 L 1422.828125 318.46875 L 1429.230469 323.265625 "/>
<path fill="none" stroke-width="3" stroke-linecap="butt" stroke-linejoin="miter" stroke="rgb(0%, 0%, 0%)" stroke-opacity="1" stroke-miterlimit="10" d="M 1568.972656 115.953125 L 1568.308594 94.554688 "/>
<path fill-rule="nonzero" fill="rgb(0%, 0%, 0%)" fill-opacity="1" d="M 1565.25 94.652344 L 1568.082031 87.167969 L 1571.371094 94.460938 "/>
<path fill="none" stroke-width="3" stroke-linecap="butt" stroke-linejoin="miter" stroke="rgb(0%, 0%, 0%)" stroke-opacity="1" stroke-miterlimit="10" d="M 1605.246094 150.046875 L 1621.84375 149.535156 "/>
<path fill-rule="nonzero" fill="rgb(0%, 0%, 0%)" fill-opacity="1" d="M 1621.75 146.472656 L 1629.234375 149.304688 L 1621.941406 152.59375 "/>
<path fill="none" stroke-width="3" stroke-linecap="butt" stroke-linejoin="miter" stroke="rgb(0%, 0%, 0%)" stroke-opacity="1" stroke-miterlimit="10" d="M 1731.023438 389.136719 L 1749.484375 399.980469 "/>
<path fill-rule="nonzero" fill="rgb(0%, 0%, 0%)" fill-opacity="1" d="M 1751.035156 397.339844 L 1755.855469 403.722656 L 1747.933594 402.617188 "/>
<path fill="none" stroke-width="3" stroke-linecap="butt" stroke-linejoin="miter" stroke="rgb(0%, 0%, 0%)" stroke-opacity="1" stroke-miterlimit="10" d="M 1682.84375 401.667969 L 1674.433594 415.992188 "/>
<path fill-rule="nonzero" fill="rgb(0%, 0%, 0%)" fill-opacity="1" d="M 1677.074219 417.539062 L 1670.691406 422.363281 L 1671.792969 414.441406 "/>
<path fill-rule="nonzero" fill="rgb(21.960784%, 59.607843%, 14.901961%)" fill-opacity="0.5" d="M 1409.679688 492 C 1409.679688 509.496094 1395.496094 523.679688 1378 523.679688 C 1360.503906 523.679688 1346.320312 509.496094 1346.320312 492 C 1346.320312 474.503906 1360.503906 460.320312 1378 460.320312 C 1395.496094 460.320312 1409.679688 474.503906 1409.679688 492 Z M 1409.679688 492 "/>
<path fill-rule="nonzero" fill="rgb(21.960784%, 59.607843%, 14.901961%)" fill-opacity="0.5" d="M 1793.679688 492 C 1793.679688 509.496094 1779.496094 523.679688 1762 523.679688 C 1744.503906 523.679688 1730.320312 509.496094 1730.320312 492 C 1730.320312 474.503906 1744.503906 460.320312 1762 460.320312 C 1779.496094 460.320312 1793.679688 474.503906 1793.679688 492 Z M 1793.679688 492 "/>
<path fill-rule="nonzero" fill="rgb(58.431373%, 34.509804%, 69.803922%)" fill-opacity="0.5" d="M 1409.679688 108 C 1409.679688 125.496094 1395.496094 139.679688 1378 139.679688 C 1360.503906 139.679688 1346.320312 125.496094 1346.320312 108 C 1346.320312 90.503906 1360.503906 76.320312 1378 76.320312 C 1395.496094 76.320312 1409.679688 90.503906 1409.679688 108 Z M 1409.679688 108 "/>
<path fill-rule="nonzero" fill="rgb(79.607843%, 23.529412%, 20%)" fill-opacity="0.5" d="M 1793.679688 108 C 1793.679688 125.496094 1779.496094 139.679688 1762 139.679688 C 1744.503906 139.679688 1730.320312 125.496094 1730.320312 108 C 1730.320312 90.503906 1744.503906 76.320312 1762 76.320312 C 1779.496094 76.320312 1793.679688 90.503906 1793.679688 108 Z M 1793.679688 108 "/>
<path fill-rule="nonzero" fill="rgb(79.607843%, 23.529412%, 20%)" fill-opacity="1" d="M 1470.988281 399.660156 C 1454.269531 409.578125 1432.675781 404.0625 1422.757812 387.34375 C 1412.839844 370.625 1418.351562 349.027344 1435.074219 339.109375 C 1451.792969 329.191406 1473.386719 334.707031 1483.304688 351.425781 C 1493.222656 368.148438 1487.710938 389.742188 1470.988281 399.660156 Z M 1470.988281 399.660156 "/>
<path fill-rule="nonzero" fill="rgb(21.960784%, 59.607843%, 14.901961%)" fill-opacity="1" d="M 1588.019531 181.410156 C 1571.300781 191.332031 1549.707031 185.816406 1539.789062 169.097656 C 1529.867188 152.375 1535.382812 130.78125 1552.101562 120.863281 C 1568.824219 110.945312 1590.417969 116.460938 1600.335938 133.179688 C 1610.253906 149.898438 1604.738281 171.492188 1588.019531 181.410156 Z M 1588.019531 181.410156 "/>
<path fill-rule="nonzero" fill="rgb(58.431373%, 34.509804%, 69.803922%)" fill-opacity="1" d="M 1718.625 401.589844 C 1701.90625 411.507812 1680.3125 405.992188 1670.394531 389.273438 C 1660.476562 372.554688 1665.988281 350.957031 1682.710938 341.039062 C 1699.429688 331.121094 1721.023438 336.636719 1730.941406 353.355469 C 1740.859375 370.074219 1735.347656 391.671875 1718.625 401.589844 Z M 1718.625 401.589844 "/>
<path fill="none" stroke-width="2" stroke-linecap="butt" stroke-linejoin="miter" stroke="rgb(0%, 0%, 0%)" stroke-opacity="1" stroke-dasharray="1 3" stroke-miterlimit="10" d="M 1284.988281 227.222656 L 1642.777344 14.988281 L 1855.011719 372.777344 L 1497.222656 585.011719 Z M 1284.988281 227.222656 "/>
</svg>
