<?xml version="1.0" encoding="UTF-8"?>
<svg xmlns="http://www.w3.org/2000/svg" xmlns:xlink="http://www.w3.org/1999/xlink" width="600" height="600" viewBox="0 0 600 600">
<path fill="none" stroke-width="5" stroke-linecap="butt" stroke-linejoin="miter" stroke="rgb(100%, 100%, 100%)" stroke-opacity="1" stroke-miterlimit="10" d="M 174.582031 347.953125 L 175 347.210938 L 175.453125 346.488281 L 175.933594 345.78125 L 176.449219 345.089844 L 176.992188 344.414062 L 177.5625 343.75 L 178.160156 343.105469 L 178.777344 342.46875 L 179.414062 341.84375 L 180.066406 341.226562 L 180.726562 340.613281 L 181.394531 340.003906 L 182.066406 339.398438 L 182.730469 338.789062 L 183.386719 338.171875 L 184.03125 337.550781 L 184.65625 336.917969 L 185.253906 336.273438 L 185.824219 335.609375 L 186.355469 334.929688 L 186.851562 334.230469 L 187.304688 333.503906 L 187.710938 332.753906 L 188.066406 331.976562 L 188.367188 331.171875 L 188.613281 330.339844 L 188.804688 329.472656 L 188.9375 328.578125 L 189.015625 327.652344 L 189.039062 326.699219 L 189.007812 325.714844 L 188.925781 324.703125 L 188.796875 323.667969 L 188.625 322.609375 L 188.414062 321.527344 L 188.171875 320.433594 L 187.90625 319.324219 L 187.621094 318.203125 L 187.324219 317.078125 L 187.027344 315.949219 L 186.734375 314.828125 L 186.457031 313.710938 L 186.199219 312.605469 L 185.976562 311.519531 L 185.789062 310.453125 L 185.65625 309.414062 L 185.574219 308.402344 L 185.558594 307.425781 L 185.609375 306.488281 L 185.742188 305.589844 L 185.953125 304.738281 L 186.25 303.929688 L 186.636719 303.171875 L 187.113281 302.460938 L 187.6875 301.800781 L 188.351562 301.191406 L 189.113281 300.632812 L 189.964844 300.121094 L 190.90625 299.660156 L 191.929688 299.242188 L 193.039062 298.867188 L 194.21875 298.535156 L 195.46875 298.238281 L 196.777344 297.972656 L 198.140625 297.738281 L 199.546875 297.523438 L 200.988281 297.328125 L 202.453125 297.148438 L 203.933594 296.976562 L 205.421875 296.808594 L 206.90625 296.636719 L 208.375 296.457031 L 209.820312 296.265625 L 211.230469 296.054688 L 212.601562 295.820312 L 213.917969 295.5625 L 215.175781 295.269531 L 216.367188 294.941406 L 217.488281 294.574219 L 218.527344 294.164062 L 219.480469 293.710938 L 220.347656 293.207031 L 221.121094 292.65625 L 221.800781 292.050781 L 222.382812 291.398438 L 222.867188 290.691406 L 223.253906 289.929688 L 223.546875 289.121094 L 223.742188 288.257812 L 223.84375 287.347656 L 223.855469 286.386719 L 223.785156 285.382812 L 223.628906 284.332031 L 223.398438 283.242188 L 223.09375 282.109375 L 222.726562 280.945312 L 222.296875 279.75 L 221.8125 278.523438 L 221.28125 277.269531 L 220.707031 275.996094 L 220.097656 274.703125 L 219.464844 273.394531 L 218.808594 272.078125 L 218.136719 270.75 L 217.460938 269.417969 L 216.777344 268.089844 L 216.101562 266.757812 L 215.4375 265.433594 L 214.785156 264.117188 L 214.15625 262.816406 L 213.554688 261.523438 L 212.980469 260.25 L 212.441406 258.996094 L 211.945312 257.761719 L 211.488281 256.546875 L 211.074219 255.359375 L 210.710938 254.199219 L 210.398438 253.0625 L 210.140625 251.957031 L 209.933594 250.882812 L 209.785156 249.835938 L 209.695312 248.820312 L 209.660156 247.832031 L 209.6875 246.878906 L 209.769531 245.957031 L 209.914062 245.070312 L 210.117188 244.210938 L 210.378906 243.382812 L 210.695312 242.585938 L 211.070312 241.820312 L 211.5 241.085938 L 211.984375 240.378906 L 212.523438 239.699219 L 213.113281 239.046875 L 213.753906 238.425781 L 214.441406 237.824219 L 215.175781 237.253906 L 215.953125 236.703125 L 216.777344 236.175781 L 217.636719 235.671875 L 218.539062 235.191406 L 219.476562 234.726562 L 220.449219 234.28125 L 221.453125 233.851562 L 222.488281 233.4375 L 223.550781 233.042969 L 224.636719 232.65625 L 225.746094 232.285156 L 226.878906 231.925781 L 228.027344 231.574219 L 229.195312 231.234375 L 230.375 230.898438 L 231.566406 230.574219 L 232.769531 230.25 L 233.976562 229.929688 L 235.191406 229.613281 L 236.40625 229.300781 L 237.621094 228.984375 L 238.832031 228.667969 L 240.039062 228.347656 L 241.238281 228.023438 L 242.429688 227.695312 L 243.609375 227.359375 L 244.773438 227.015625 L 245.917969 226.664062 L 247.046875 226.300781 L 248.148438 225.925781 L 249.230469 225.539062 L 250.28125 225.136719 L 251.304688 224.71875 L 252.296875 224.285156 L 253.253906 223.828125 L 254.171875 223.355469 L 255.054688 222.863281 L 255.894531 222.34375 L 256.6875 221.804688 L 257.4375 221.238281 L 258.140625 220.648438 L 258.792969 220.03125 L 259.394531 219.386719 L 259.941406 218.710938 L 260.433594 218.011719 L 260.867188 217.277344 L 261.246094 216.511719 L 261.566406 215.71875 L 261.832031 214.890625 L 262.035156 214.035156 L 262.179688 213.144531 L 262.265625 212.226562 L 262.296875 211.273438 L 262.269531 210.292969 L 262.1875 209.28125 L 262.054688 208.242188 L 261.871094 207.179688 L 261.636719 206.085938 L 261.359375 204.972656 L 261.042969 203.835938 L 260.691406 202.679688 L 260.304688 201.503906 L 259.894531 200.316406 L 259.460938 199.117188 L 259.015625 197.910156 L 258.101562 195.488281 L 257.648438 194.277344 L 257.203125 193.074219 L 256.78125 191.878906 L 256.382812 190.699219 L 256.019531 189.535156 L 255.695312 188.394531 L 255.417969 187.28125 L 255.195312 186.195312 L 255.03125 185.140625 L 254.933594 184.121094 L 254.90625 183.136719 L 254.953125 182.199219 L 255.082031 181.296875 L 255.289062 180.441406 L 255.578125 179.632812 L 255.953125 178.867188 L 256.410156 178.144531 L 256.949219 177.464844 L 257.570312 176.832031 L 258.261719 176.234375 L 259.023438 175.679688 L 259.851562 175.152344 L 260.734375 174.660156 L 261.667969 174.195312 L 262.636719 173.746094 L 263.640625 173.316406 L 264.660156 172.898438 L 266.722656 172.070312 L 267.738281 171.648438 L 268.734375 171.214844 L 269.699219 170.765625 L 270.621094 170.292969 L 271.496094 169.796875 L 272.316406 169.265625 L 273.070312 168.707031 L 273.761719 168.109375 L 274.382812 167.476562 L 274.9375 166.804688 L 275.421875 166.097656 L 275.839844 165.355469 L 276.195312 164.578125 L 276.492188 163.773438 L 276.742188 162.9375 L 276.949219 162.082031 L 277.125 161.210938 L 277.277344 160.324219 L 277.558594 158.542969 L 277.707031 157.65625 L 277.875 156.777344 L 278.070312 155.917969 L 278.304688 155.074219 L 278.582031 154.257812 L 278.90625 153.464844 L 279.285156 152.699219 "/>
<path fill="none" stroke-width="5" stroke-linecap="butt" stroke-linejoin="miter" stroke="rgb(100%, 100%, 100%)" stroke-opacity="1" stroke-miterlimit="10" d="M 322.523438 151.765625 L 322.964844 152.542969 L 323.371094 153.335938 L 323.75 154.152344 L 324.09375 154.984375 L 324.414062 155.832031 L 324.703125 156.695312 L 324.972656 157.578125 L 325.214844 158.46875 L 325.441406 159.371094 L 325.65625 160.28125 L 325.859375 161.199219 L 326.25 163.042969 L 326.449219 163.964844 L 326.65625 164.878906 L 326.875 165.785156 L 327.117188 166.679688 L 327.378906 167.558594 L 327.671875 168.425781 L 328 169.269531 L 328.363281 170.089844 L 328.769531 170.886719 L 329.222656 171.652344 L 329.726562 172.394531 L 330.277344 173.101562 L 330.886719 173.78125 L 331.546875 174.425781 L 332.265625 175.035156 L 333.039062 175.617188 L 333.863281 176.164062 L 334.742188 176.679688 L 335.671875 177.167969 L 336.644531 177.625 L 337.660156 178.058594 L 338.714844 178.472656 L 339.796875 178.867188 L 340.90625 179.246094 L 342.035156 179.617188 L 343.171875 179.980469 L 344.308594 180.339844 L 345.445312 180.707031 L 346.5625 181.078125 L 347.660156 181.464844 L 348.730469 181.871094 L 349.757812 182.296875 L 350.738281 182.753906 L 351.664062 183.242188 L 352.53125 183.765625 L 353.324219 184.332031 L 354.046875 184.941406 L 354.691406 185.597656 L 355.246094 186.304688 L 355.71875 187.0625 L 356.097656 187.875 L 356.390625 188.738281 L 356.585938 189.660156 L 356.695312 190.632812 L 356.710938 191.660156 L 356.640625 192.738281 L 356.488281 193.867188 L 356.257812 195.042969 L 355.953125 196.261719 L 355.582031 197.515625 L 355.152344 198.808594 L 354.671875 200.132812 L 354.148438 201.480469 L 353.589844 202.851562 L 353.003906 204.234375 L 352.40625 205.625 L 351.203125 208.414062 L 350.617188 209.800781 L 350.058594 211.171875 L 349.527344 212.519531 L 349.039062 213.847656 L 348.601562 215.144531 L 348.222656 216.40625 L 347.90625 217.632812 L 347.664062 218.8125 L 347.5 219.949219 L 347.414062 221.035156 L 347.417969 222.074219 L 347.511719 223.054688 L 347.695312 223.980469 L 347.976562 224.851562 L 348.351562 225.667969 L 348.820312 226.425781 L 349.386719 227.128906 L 350.042969 227.777344 L 350.792969 228.371094 L 351.625 228.914062 L 352.546875 229.40625 L 353.542969 229.851562 L 354.617188 230.25 L 355.761719 230.609375 L 356.972656 230.929688 L 358.242188 231.214844 L 359.5625 231.46875 L 360.929688 231.695312 L 362.335938 231.898438 L 363.777344 232.082031 L 365.242188 232.25 L 366.730469 232.402344 L 368.234375 232.550781 L 371.257812 232.832031 L 372.765625 232.972656 L 374.265625 233.121094 L 375.746094 233.28125 L 377.207031 233.449219 L 378.644531 233.636719 L 380.054688 233.839844 L 381.425781 234.0625 L 382.761719 234.304688 L 384.058594 234.574219 L 385.308594 234.871094 L 386.507812 235.195312 L 387.664062 235.550781 L 388.765625 235.933594 L 389.8125 236.347656 L 390.804688 236.796875 L 391.742188 237.277344 L 392.625 237.792969 L 393.449219 238.34375 L 394.214844 238.925781 L 394.921875 239.542969 L 395.574219 240.195312 L 396.167969 240.878906 L 396.703125 241.597656 L 397.1875 242.347656 L 397.617188 243.132812 L 397.992188 243.949219 L 398.3125 244.792969 L 398.585938 245.667969 L 398.8125 246.574219 L 398.988281 247.507812 L 399.117188 248.464844 L 399.207031 249.453125 L 399.253906 250.460938 L 399.257812 251.496094 L 399.226562 252.550781 L 399.160156 253.628906 L 399.0625 254.726562 L 398.929688 255.839844 L 398.769531 256.972656 L 398.582031 258.121094 L 398.367188 259.285156 L 398.132812 260.464844 L 397.875 261.652344 L 397.601562 262.851562 L 397.3125 264.0625 L 397.007812 265.28125 L 396.691406 266.503906 L 396.367188 267.734375 L 396.039062 268.96875 L 395.703125 270.203125 L 395.363281 271.441406 L 394.691406 273.917969 L 394.363281 275.148438 L 394.039062 276.378906 L 393.726562 277.601562 L 393.421875 278.820312 L 393.136719 280.027344 L 392.867188 281.226562 L 392.613281 282.410156 L 392.386719 283.585938 L 392.179688 284.746094 L 392 285.886719 L 391.851562 287.015625 L 391.730469 288.125 L 391.644531 289.210938 L 391.59375 290.277344 L 391.585938 291.324219 L 391.613281 292.34375 L 391.683594 293.335938 L 391.800781 294.304688 L 391.964844 295.246094 L 392.175781 296.15625 L 392.441406 297.039062 L 392.753906 297.890625 L 393.121094 298.710938 L 393.546875 299.496094 L 394.023438 300.25 L 394.558594 300.96875 L 395.148438 301.65625 L 395.800781 302.308594 L 396.503906 302.929688 L 397.269531 303.511719 L 398.089844 304.0625 L 398.960938 304.582031 L 399.890625 305.070312 L 400.871094 305.527344 L 401.898438 305.953125 L 402.972656 306.355469 L 404.089844 306.726562 L 405.25 307.078125 L 406.441406 307.410156 L 407.664062 307.71875 L 408.914062 308.015625 L 410.183594 308.300781 L 411.46875 308.578125 L 412.761719 308.847656 L 414.058594 309.117188 L 415.351562 309.386719 L 416.628906 309.664062 L 417.890625 309.953125 L 419.128906 310.257812 L 420.332031 310.582031 L 421.496094 310.929688 L 422.613281 311.300781 L 423.679688 311.707031 L 424.6875 312.148438 L 425.632812 312.625 L 426.507812 313.144531 L 427.308594 313.707031 L 428.03125 314.3125 L 428.679688 314.96875 L 429.242188 315.671875 L 429.726562 316.421875 L 430.128906 317.222656 L 430.449219 318.066406 L 430.695312 318.960938 L 430.867188 319.894531 L 430.96875 320.871094 L 431.011719 321.882812 L 430.996094 322.929688 L 430.9375 324.003906 L 430.835938 325.101562 L 430.707031 326.214844 L 430.558594 327.339844 L 430.402344 328.472656 L 430.246094 329.601562 L 430.097656 330.726562 L 429.976562 331.835938 L 429.882812 332.929688 L 429.832031 333.996094 L 429.824219 335.039062 L 429.875 336.046875 L 429.984375 337.019531 L 430.160156 337.953125 L 430.398438 338.847656 L 430.707031 339.699219 L 431.085938 340.515625 L 431.527344 341.292969 L 432.027344 342.03125 L 432.585938 342.738281 L 433.191406 343.417969 L 433.835938 344.070312 L 434.511719 344.707031 L 435.210938 345.328125 L 435.921875 345.945312 L 436.636719 346.558594 L 437.335938 347.179688 L 438.019531 347.8125 L 438.675781 348.460938 L 439.296875 349.132812 L 439.875 349.824219 L 440.40625 350.546875 L 440.886719 351.300781 "/>
<path fill="none" stroke-width="5" stroke-linecap="butt" stroke-linejoin="miter" stroke="rgb(100%, 100%, 100%)" stroke-opacity="1" stroke-miterlimit="10" d="M 419.335938 388.800781 L 418.484375 388.773438 L 417.632812 388.714844 L 416.78125 388.617188 L 415.929688 388.480469 L 415.078125 388.316406 L 414.230469 388.117188 L 413.378906 387.894531 L 412.527344 387.640625 L 411.679688 387.371094 L 410.828125 387.082031 L 409.980469 386.78125 L 409.128906 386.472656 L 408.28125 386.164062 L 407.429688 385.859375 L 406.578125 385.5625 L 405.730469 385.285156 L 404.878906 385.027344 L 404.027344 384.796875 L 403.179688 384.601562 L 402.328125 384.445312 L 401.476562 384.332031 L 400.625 384.269531 L 399.773438 384.261719 L 398.921875 384.308594 L 398.066406 384.417969 L 397.214844 384.585938 L 396.359375 384.820312 L 395.503906 385.117188 L 394.648438 385.480469 L 393.792969 385.90625 L 392.9375 386.390625 L 392.082031 386.933594 L 391.226562 387.53125 L 390.367188 388.175781 L 389.511719 388.867188 L 388.652344 389.589844 L 387.792969 390.34375 L 386.9375 391.117188 L 386.078125 391.902344 L 385.21875 392.691406 L 384.363281 393.472656 L 383.503906 394.242188 L 382.644531 394.980469 L 381.789062 395.6875 L 380.929688 396.34375 L 380.074219 396.949219 L 379.21875 397.492188 L 378.363281 397.960938 L 377.507812 398.351562 L 376.652344 398.652344 L 375.796875 398.863281 L 374.945312 398.976562 L 374.09375 398.988281 L 373.242188 398.894531 L 372.390625 398.695312 L 371.539062 398.390625 L 370.691406 397.980469 L 369.84375 397.460938 L 368.996094 396.847656 L 368.148438 396.132812 L 367.304688 395.328125 L 366.457031 394.4375 L 365.613281 393.472656 L 364.769531 392.433594 L 363.925781 391.339844 L 363.082031 390.195312 L 362.242188 389.007812 L 361.398438 387.796875 L 359.710938 385.328125 L 358.871094 384.09375 L 358.027344 382.875 L 357.183594 381.6875 L 356.339844 380.535156 L 355.496094 379.433594 L 354.652344 378.386719 L 353.808594 377.410156 L 352.964844 376.507812 L 352.117188 375.691406 L 351.273438 374.960938 L 350.425781 374.328125 L 349.578125 373.796875 L 348.726562 373.367188 L 347.878906 373.046875 L 347.027344 372.839844 L 346.175781 372.738281 L 345.324219 372.75 L 344.46875 372.871094 L 343.617188 373.097656 L 342.761719 373.429688 L 341.90625 373.867188 L 341.050781 374.398438 L 340.191406 375.023438 L 339.335938 375.738281 L 338.476562 376.53125 L 337.617188 377.402344 L 336.757812 378.339844 L 335.898438 379.339844 L 335.039062 380.394531 L 334.175781 381.492188 L 333.316406 382.632812 L 332.453125 383.804688 L 331.59375 384.996094 L 330.730469 386.207031 L 329.871094 387.429688 L 329.007812 388.652344 L 328.148438 389.867188 L 327.285156 391.074219 L 326.425781 392.261719 L 325.5625 393.425781 L 324.703125 394.5625 L 323.839844 395.664062 L 322.980469 396.722656 L 322.121094 397.738281 L 321.261719 398.707031 L 320.402344 399.625 L 319.542969 400.488281 L 318.683594 401.292969 L 317.824219 402.039062 L 316.96875 402.722656 L 316.113281 403.339844 L 315.253906 403.894531 L 314.398438 404.382812 L 313.542969 404.804688 L 312.6875 405.160156 L 311.835938 405.445312 L 310.980469 405.667969 L 310.128906 405.820312 L 309.273438 405.910156 L 308.421875 405.9375 L 307.570312 405.898438 L 306.71875 405.796875 L 305.867188 405.636719 L 305.015625 405.417969 L 304.167969 405.144531 L 303.316406 404.8125 L 302.46875 404.429688 L 301.621094 403.996094 L 300.769531 403.515625 L 299.921875 402.988281 L 299.074219 402.414062 L 298.226562 401.800781 L 297.382812 401.148438 L 296.535156 400.460938 L 295.6875 399.734375 L 294.839844 398.980469 L 293.996094 398.199219 L 293.148438 397.386719 L 292.304688 396.554688 L 291.457031 395.699219 L 290.613281 394.828125 L 289.769531 393.9375 L 288.921875 393.035156 L 288.078125 392.121094 L 287.234375 391.203125 L 286.386719 390.277344 L 284.699219 388.417969 L 283.851562 387.492188 L 283.007812 386.574219 L 282.164062 385.660156 L 281.316406 384.761719 L 280.472656 383.875 L 279.628906 383.003906 L 278.78125 382.15625 L 277.9375 381.328125 L 277.089844 380.523438 L 276.242188 379.75 L 275.398438 379.003906 L 274.550781 378.292969 L 273.703125 377.617188 L 272.855469 376.984375 L 272.007812 376.390625 L 271.160156 375.839844 L 270.3125 375.339844 L 269.464844 374.886719 L 268.617188 374.488281 L 267.765625 374.140625 L 266.914062 373.851562 L 266.066406 373.621094 L 265.214844 373.449219 L 264.363281 373.34375 L 263.511719 373.296875 L 262.660156 373.316406 L 261.804688 373.402344 L 260.953125 373.554688 L 260.097656 373.773438 L 259.246094 374.058594 L 258.390625 374.410156 L 257.535156 374.828125 L 256.679688 375.308594 L 255.820312 375.851562 L 254.964844 376.453125 L 254.109375 377.113281 L 253.25 377.828125 L 252.390625 378.589844 L 251.535156 379.402344 L 250.675781 380.253906 L 249.816406 381.140625 L 248.957031 382.054688 L 248.097656 382.996094 L 247.238281 383.953125 L 246.378906 384.921875 L 245.519531 385.894531 L 244.660156 386.859375 L 243.796875 387.8125 L 242.9375 388.742188 L 242.078125 389.644531 L 241.222656 390.507812 L 240.363281 391.324219 L 239.503906 392.089844 L 238.648438 392.792969 L 237.789062 393.429688 L 236.933594 393.988281 L 236.078125 394.472656 L 235.222656 394.867188 L 234.367188 395.171875 L 233.511719 395.386719 L 232.660156 395.507812 L 231.808594 395.535156 L 230.957031 395.464844 L 230.105469 395.304688 L 229.253906 395.050781 L 228.40625 394.714844 L 227.558594 394.300781 L 226.707031 393.8125 L 225.859375 393.261719 L 225.011719 392.652344 L 224.167969 392 L 223.320312 391.316406 L 222.472656 390.605469 L 221.625 389.886719 L 220.78125 389.167969 L 219.933594 388.464844 L 219.085938 387.785156 L 218.238281 387.140625 L 217.390625 386.542969 L 216.542969 386.003906 L 215.695312 385.523438 L 214.847656 385.117188 L 213.996094 384.785156 L 213.144531 384.527344 L 212.296875 384.351562 L 211.445312 384.25 L 210.59375 384.226562 L 209.738281 384.277344 L 208.886719 384.386719 L 208.03125 384.554688 L 207.179688 384.769531 L 206.324219 385.023438 L 205.472656 385.300781 L 204.617188 385.589844 L 203.761719 385.882812 L 202.90625 386.164062 L 202.054688 386.421875 L 201.199219 386.648438 L 200.347656 386.832031 L 199.492188 386.96875 L 198.640625 387.050781 L 197.789062 387.074219 "/>
<path fill="none" stroke-width="3" stroke-linecap="butt" stroke-linejoin="miter" stroke="rgb(100%, 100%, 100%)" stroke-opacity="1" stroke-miterlimit="10" d="M 115.945312 409.179688 L 92.929688 422.832031 "/>
<path fill-rule="nonzero" fill="rgb(100%, 100%, 100%)" fill-opacity="1" d="M 94.882812 426.125 L 84.984375 427.546875 L 90.976562 419.542969 "/>
<path fill="none" stroke-width="3" stroke-linecap="butt" stroke-linejoin="miter" stroke="rgb(100%, 100%, 100%)" stroke-opacity="1" stroke-miterlimit="10" d="M 131.339844 348.886719 L 120.75 331.03125 "/>
<path fill-rule="nonzero" fill="rgb(100%, 100%, 100%)" fill-opacity="1" d="M 117.457031 332.984375 L 116.035156 323.085938 L 124.039062 329.078125 "/>
<path fill="none" stroke-width="3" stroke-linecap="butt" stroke-linejoin="miter" stroke="rgb(100%, 100%, 100%)" stroke-opacity="1" stroke-miterlimit="10" d="M 298.714844 69.941406 L 297.886719 43.195312 "/>
<path fill-rule="nonzero" fill="rgb(100%, 100%, 100%)" fill-opacity="1" d="M 294.0625 43.3125 L 297.601562 33.960938 L 301.710938 43.078125 "/>
<path fill="none" stroke-width="3" stroke-linecap="butt" stroke-linejoin="miter" stroke="rgb(100%, 100%, 100%)" stroke-opacity="1" stroke-miterlimit="10" d="M 344.054688 112.558594 L 364.808594 111.917969 "/>
<path fill-rule="nonzero" fill="rgb(100%, 100%, 100%)" fill-opacity="1" d="M 364.6875 108.09375 L 374.042969 111.632812 L 364.925781 115.742188 "/>
<path fill="none" stroke-width="3" stroke-linecap="butt" stroke-linejoin="miter" stroke="rgb(100%, 100%, 100%)" stroke-opacity="1" stroke-miterlimit="10" d="M 501.277344 411.421875 L 524.355469 424.972656 "/>
<path fill-rule="nonzero" fill="rgb(100%, 100%, 100%)" fill-opacity="1" d="M 526.292969 421.671875 L 532.320312 429.652344 L 522.417969 428.273438 "/>
<path fill="none" stroke-width="3" stroke-linecap="butt" stroke-linejoin="miter" stroke="rgb(100%, 100%, 100%)" stroke-opacity="1" stroke-miterlimit="10" d="M 441.054688 427.085938 L 430.542969 444.988281 "/>
<path fill-rule="nonzero" fill="rgb(100%, 100%, 100%)" fill-opacity="1" d="M 433.84375 446.925781 L 425.863281 452.953125 L 427.242188 443.050781 "/>
<path fill-rule="nonzero" fill="rgb(21.960784%, 59.607843%, 14.901961%)" fill-opacity="0.5" d="M 99.601562 540 C 99.601562 561.871094 81.871094 579.601562 60 579.601562 C 38.128906 579.601562 20.398438 561.871094 20.398438 540 C 20.398438 518.128906 38.128906 500.398438 60 500.398438 C 81.871094 500.398438 99.601562 518.128906 99.601562 540 Z M 99.601562 540 "/>
<path fill-rule="nonzero" fill="rgb(21.960784%, 59.607843%, 14.901961%)" fill-opacity="0.5" d="M 579.601562 540 C 579.601562 561.871094 561.871094 579.601562 540 579.601562 C 518.128906 579.601562 500.398438 561.871094 500.398438 540 C 500.398438 518.128906 518.128906 500.398438 540 500.398438 C 561.871094 500.398438 579.601562 518.128906 579.601562 540 Z M 579.601562 540 "/>
<path fill-rule="nonzero" fill="rgb(58.431373%, 34.509804%, 69.803922%)" fill-opacity="0.5" d="M 99.601562 60 C 99.601562 81.871094 81.871094 99.601562 60 99.601562 C 38.128906 99.601562 20.398438 81.871094 20.398438 60 C 20.398438 38.128906 38.128906 20.398438 60 20.398438 C 81.871094 20.398438 99.601562 38.128906 99.601562 60 Z M 99.601562 60 "/>
<path fill-rule="nonzero" fill="rgb(79.607843%, 23.529412%, 20%)" fill-opacity="0.5" d="M 579.601562 60 C 579.601562 81.871094 561.871094 99.601562 540 99.601562 C 518.128906 99.601562 500.398438 81.871094 500.398438 60 C 500.398438 38.128906 518.128906 20.398438 540 20.398438 C 561.871094 20.398438 579.601562 38.128906 579.601562 60 Z M 579.601562 60 "/>
<path fill-rule="nonzero" fill="rgb(79.607843%, 23.529412%, 20%)" fill-opacity="1" d="M 176.238281 424.574219 C 155.335938 436.972656 128.34375 430.078125 115.945312 409.179688 C 103.546875 388.277344 110.441406 361.285156 131.339844 348.886719 C 152.242188 336.492188 179.234375 343.382812 191.632812 364.28125 C 204.03125 385.183594 197.136719 412.175781 176.238281 424.574219 Z M 176.238281 424.574219 "/>
<path fill-rule="nonzero" fill="rgb(21.960784%, 59.607843%, 14.901961%)" fill-opacity="1" d="M 322.523438 151.765625 C 301.625 164.164062 274.632812 157.269531 262.234375 136.371094 C 249.835938 115.46875 256.730469 88.476562 277.628906 76.078125 C 298.527344 63.679688 325.523438 70.574219 337.917969 91.472656 C 350.316406 112.375 343.425781 139.367188 322.523438 151.765625 Z M 322.523438 151.765625 "/>
<path fill-rule="nonzero" fill="rgb(58.431373%, 34.509804%, 69.803922%)" fill-opacity="1" d="M 485.785156 426.984375 C 464.882812 439.382812 437.890625 432.492188 425.492188 411.589844 C 413.09375 390.691406 419.988281 363.699219 440.886719 351.300781 C 461.789062 338.902344 488.78125 345.796875 501.179688 366.695312 C 513.578125 387.59375 506.683594 414.589844 485.785156 426.984375 Z M 485.785156 426.984375 "/>
<path fill="none" stroke-width="2" stroke-linecap="butt" stroke-linejoin="miter" stroke="rgb(100%, 100%, 100%)" stroke-opacity="1" stroke-dasharray="1 3" stroke-miterlimit="10" d="M -56.265625 209.03125 L 390.96875 -56.265625 L 656.265625 390.96875 L 209.03125 656.265625 Z M -56.265625 209.03125 "/>
</svg>
